<svg width="960" height="960" viewBox="0 0 960 960" fill="none" xmlns="http://www.w3.org/2000/svg">
<g clip-path="url(#clip0_80_30)">
<g clip-path="url(#clip1_80_30)">
<path fill-rule="evenodd" clip-rule="evenodd" d="M235.337 303.422L90.8094 202.347C83.9592 211.809 77.4341 221.509 71.2775 231.448L216.498 333C222.2 322.759 228.508 312.885 235.337 303.422ZM204.598 356.947L40.0394 290.539C34.1212 303.877 28.8318 317.475 24.1493 331.333L189.856 398.197C193.78 383.992 198.723 370.224 204.598 356.947ZM185.564 415.605L8.86631 387.652C5.37615 404.78 2.94821 422.145 1.45243 439.684L179.299 467.835C179.885 449.991 181.987 432.537 185.564 415.605ZM179.061 477.685C179.061 477.447 179.082 477.21 179.082 476.969L0 489.466C0.541951 510.055 2.40626 530.453 5.70134 550.547L185.174 538.011C181.163 518.523 179.061 498.341 179.061 477.685ZM956.175 477.685C956.175 729.899 742.039 955.369 477.916 955.369C327.902 955.369 194.083 882.596 106.396 773.53L180.296 704.696L92.457 755.339C76.6754 733.754 62.6929 710.908 50.6184 687.069L172.362 616.872L37.0479 658.185C27.7262 636.338 20.0739 613.754 14.1341 590.648L185.26 538.401C213.334 674.144 333.69 776.194 477.916 776.194C642.973 776.194 776.789 642.549 776.789 477.685C776.789 312.82 642.973 179.156 477.916 179.156C390.791 179.156 312.402 216.421 257.774 275.837L139.455 144.577C226.015 56.5141 345.7 0 477.916 0C742.039 0 956.175 225.472 956.175 477.685ZM2074.13 544.332V930.73C2074.13 934.323 2071.23 937.203 2067.65 937.203H1928.05C1924.47 937.203 1921.56 934.323 1921.56 930.73V555.681C1921.56 449.601 1877.25 395.816 1789.91 395.816C1696.09 395.816 1637.82 459.671 1637.82 562.501V930.73C1637.82 934.323 1634.91 937.203 1631.34 937.203H1491.71C1488.13 937.203 1485.23 934.323 1485.23 930.73V555.681C1485.23 449.601 1440.18 395.816 1351.32 395.816C1258.22 395.816 1200.36 459.671 1200.36 562.501V930.73C1200.36 934.323 1197.45 937.203 1193.88 937.203H1054.27C1050.69 937.203 1047.79 934.323 1047.79 930.73V282.787C1047.79 279.214 1050.69 276.313 1054.27 276.313H1127.24C1130.47 276.313 1133.44 278.175 1134.82 281.098L1183.27 382.717C1193.64 358.138 1245.25 258.146 1399.04 258.146C1498.84 258.146 1571.1 301.387 1608.29 383.255C1651.89 302.535 1733.53 258.146 1838.77 258.146C1992.75 258.146 2074.13 357.121 2074.13 544.332ZM2318.21 741.007C2318.03 664.938 2385.69 642.4 2457.73 643.481H2599.72V719.96C2591.72 740.964 2545.35 839.787 2428.55 839.787C2365.96 840.652 2316.41 806.248 2318.21 741.007ZM2470.84 252.473C2346.69 252.473 2219.46 313.859 2192.86 443.107C2192.13 446.615 2194.47 450.034 2197.98 450.749L2320.98 475.63C2324.19 476.278 2327.33 474.393 2328.39 471.296C2351.03 405.018 2390.76 376.977 2464.08 376.024C2603.75 376.002 2599.13 502.37 2599.72 536.842H2445.02C2387.6 536.842 2337.52 545.328 2296.18 562.112C2173.22 609.271 2133.23 741.092 2192.06 853.687C2212.61 891.645 2267.52 955.369 2404.42 955.369C2507.28 955.369 2578.71 915.225 2616.84 836.021C2624.04 853.861 2648.56 914.729 2655.67 932.374C2656.86 935.319 2659.7 937.203 2662.89 937.203H2738.13C2741.71 937.203 2744.61 934.323 2744.61 930.73V536.842C2744.7 530.779 2770.34 252.473 2470.84 252.473ZM3334.91 521.184V698.436C3291.94 778.791 3229.31 812.678 3161.35 812.678C3062.91 812.678 2976.4 726.087 2976.4 606.759C2976.4 487.45 3051.53 400.861 3161.35 400.861C3264.06 400.861 3319.32 470.605 3334.91 521.184ZM3359.86 378.32C3343.66 348.244 3282.77 258.146 3135.06 258.146C2957.86 258.146 2829.24 404.759 2829.24 606.759C2829.24 812.005 2954.52 955.369 3133.91 955.369C3297.27 955.369 3364.93 853.623 3378.24 830.391L3419.32 932.353C3420.52 935.276 3423.37 937.203 3426.54 937.203H3505.97C3509.55 937.203 3512.45 934.323 3512.45 930.73V76.3914C3512.45 72.8188 3509.55 69.9173 3505.97 69.9173H3366.34C3362.76 69.9173 3359.86 72.8188 3359.86 76.3914V378.32ZM3753 741.007C3752.83 664.938 3820.48 642.4 3892.54 643.481H4034.51V719.96C4026.51 740.964 3980.14 839.787 3863.35 839.787C3800.75 840.652 3751.2 806.248 3753 741.007ZM3905.64 252.473C3781.48 252.473 3654.28 313.859 3627.67 443.107C3626.96 446.615 3629.27 450.034 3632.77 450.749L3755.8 475.63C3758.99 476.278 3762.14 474.393 3763.2 471.296C3785.84 405.018 3825.59 376.977 3898.88 376.024C4038.59 376.002 4033.95 502.37 4034.51 536.842H3879.82C3822.4 536.842 3772.34 545.328 3731 562.112C3608.01 609.271 3568.02 741.092 3626.86 853.687C3647.4 891.645 3702.31 955.369 3839.22 955.369C3942.09 955.369 4013.51 915.225 4051.66 836.021C4058.85 853.861 4083.36 914.729 4090.48 932.374C4091.65 935.319 4094.52 937.203 4097.68 937.203H4172.95C4176.53 937.203 4179.43 934.323 4179.43 930.73V536.842C4179.5 530.779 4205.15 252.473 3905.64 252.473ZM2585.34 1225.1H2651.38L2564.32 1464.02C2539.43 1532.83 2499.24 1562.09 2438 1558.75V1501.39C2471.01 1501.89 2489.2 1488.88 2500.67 1456.38L2402.6 1225.1H2470.06L2532.25 1385.66L2585.34 1225.1ZM2262.43 1411.94C2295.21 1411.94 2328.94 1389.43 2328.94 1344.56C2328.94 1304.72 2300.13 1277.18 2262.43 1277.18C2224.45 1277.18 2196.4 1304.7 2196.4 1344.56C2196.4 1377.23 2217.36 1411.94 2262.43 1411.94ZM2356.19 1255.2C2379.16 1279.58 2390.66 1309.2 2390.66 1344.56C2390.66 1379.92 2379.16 1410.04 2356.21 1434.4C2333.71 1458.78 2305.96 1470.71 2273.92 1470.71C2240.43 1470.71 2214.59 1459.26 2196.4 1435.83V1464.02H2134.68V1127.12H2196.4V1253.29C2214.59 1229.86 2240.43 1218.41 2273.92 1218.41C2305.96 1218.41 2333.71 1230.82 2356.19 1255.2ZM3440.5 1450.62C3440.5 1457.76 3446.76 1464.02 3453.92 1464.02H3495.97V1099.45L3440.5 1127.12V1450.62ZM3778.68 1205.77C3733.94 1205.77 3687.43 1229.02 3664.16 1262.97V1450.62C3664.16 1457.76 3670.43 1464.02 3677.59 1464.02H3719.63V1285.3C3733.06 1268.32 3754.53 1257.6 3778.68 1257.6C3817.15 1257.6 3844.89 1287.98 3844.89 1328.19V1464.02H3899.44V1326.44C3899.44 1257.6 3847.55 1205.77 3778.68 1205.77ZM2871.52 1380.03V1262.06H2943.1V1212.93H2871.52V1136.98L2816.02 1164.67V1391.63C2816.02 1438.1 2843.77 1464.02 2892.98 1464.02H2964.54V1416.66H2907.29C2880.45 1416.66 2871.52 1406.83 2871.52 1380.03ZM3120.21 1208.47C3072.8 1208.47 3022.72 1233.48 2997.66 1270.12V1545.35C2997.66 1552.49 3003.9 1558.75 3011.08 1558.75H3053.14V1292.44C3066.55 1272.78 3091.57 1260.29 3119.34 1260.29C3162.24 1260.29 3193.59 1292.44 3193.59 1338C3193.59 1382.69 3162.24 1416.66 3119.34 1416.66H3079.97V1464.02H3120.21C3194.48 1464.02 3249.04 1411.3 3249.04 1338C3249.04 1263.86 3193.59 1208.47 3120.21 1208.47ZM3607.8 1464.02V1212.93H3552.33V1450.62C3552.33 1457.76 3558.6 1464.02 3565.75 1464.02H3607.8ZM4179.47 1464.02L4062.29 1331.77L4166.96 1212.93H4101.61L4007.7 1323.75V1099.45L3952.23 1127.12V1449.71C3952.23 1457.76 3958.5 1464.02 3965.65 1464.02H4007.7V1338.91L4111.46 1464.02H4179.47ZM3316.14 1365.74H3391.29V1310.3H3289.3L3316.14 1365.74ZM3580.06 1094.08C3559.48 1094.08 3542.48 1110.17 3542.48 1130.69C3542.48 1140.53 3546.06 1148.6 3552.33 1154.84H3607.8C3614.07 1148.6 3617.65 1140.53 3617.65 1130.69C3617.65 1110.17 3600.65 1094.08 3580.06 1094.08Z" fill="white"/>
</g>
</g>
<defs>
<clipPath id="clip0_80_30">
<rect width="960" height="960" fill="white"/>
</clipPath>
<clipPath id="clip1_80_30">
<rect width="4180" height="1559" fill="white"/>
</clipPath>
</defs>
</svg>
