<svg width="960" height="960" viewBox="0 0 960 960" fill="none" xmlns="http://www.w3.org/2000/svg">
<g clip-path="url(#clip0_82_37)">
<g clip-path="url(#clip1_82_37)">
<path d="M449.115 510.885C464.558 526.327 464.558 552.064 449.115 567.507C433.673 582.949 407.936 582.949 392.493 567.507C299.839 469.705 299.839 315.281 397.641 217.48L541.769 73.3512C639.571 -24.4504 793.995 -24.4504 886.649 73.3512C984.451 171.153 984.451 325.576 886.649 418.231L773.405 531.475C757.963 546.917 732.225 546.917 716.783 531.475C701.341 516.032 701.341 490.295 716.783 474.853L830.027 361.609C896.944 294.692 896.944 191.743 830.027 124.826C763.11 57.9088 660.161 57.9088 593.244 124.826L449.115 268.954C387.346 341.019 387.346 443.968 449.115 510.885ZM505.737 454.263C490.295 438.82 490.295 413.083 505.737 397.641C521.18 382.198 546.917 382.198 562.359 397.641C660.161 495.442 660.161 649.866 562.359 742.52L418.231 886.649C320.429 984.45 166.005 984.45 73.3512 886.649C-24.4504 788.847 -24.4504 634.424 73.3512 541.769L181.448 433.673C196.89 418.231 222.627 418.231 238.07 433.673C253.512 449.115 253.512 474.853 238.07 490.295L129.973 598.391C63.0563 665.308 63.0563 768.257 129.973 835.174C196.89 902.091 299.839 902.091 366.756 835.174L510.885 691.046C567.507 624.129 567.507 521.18 505.737 454.263Z" fill="white"/>
</g>
</g>
<defs>
<clipPath id="clip0_82_37">
<rect width="960" height="960" fill="white"/>
</clipPath>
<clipPath id="clip1_82_37">
<rect width="960" height="960" fill="white"/>
</clipPath>
</defs>
</svg>
